<?xml version="1.0" encoding="UTF-8" standalone="no"?>
<!-- Created with Inkscape (http://www.inkscape.org/) -->

<svg
   xmlns:dc="http://purl.org/dc/elements/1.1/"
   xmlns:cc="http://creativecommons.org/ns#"
   xmlns:rdf="http://www.w3.org/1999/02/22-rdf-syntax-ns#"
   xmlns:svg="http://www.w3.org/2000/svg"
   xmlns="http://www.w3.org/2000/svg"
   xmlns:sodipodi="http://sodipodi.sourceforge.net/DTD/sodipodi-0.dtd"
   xmlns:inkscape="http://www.inkscape.org/namespaces/inkscape"
   width="210mm"
   height="297mm"
   viewBox="0 0 744.09448819 1052.3622047"
   id="svg2"
   version="1.1"
   inkscape:version="0.91 r13725"
   sodipodi:docname="cross_circle.svg">
  <defs
     id="defs4" />
  <sodipodi:namedview
     id="base"
     pagecolor="#ffffff"
     bordercolor="#666666"
     borderopacity="1.0"
     inkscape:pageopacity="0.0"
     inkscape:pageshadow="2"
     inkscape:zoom="0.7"
     inkscape:cx="168.9631"
     inkscape:cy="514.28571"
     inkscape:document-units="px"
     inkscape:current-layer="layer1"
     showgrid="false"
     inkscape:window-width="1920"
     inkscape:window-height="980"
     inkscape:window-x="0"
     inkscape:window-y="33"
     inkscape:window-maximized="1" />
  <metadata
     id="metadata7">
    <rdf:RDF>
      <cc:Work
         rdf:about="">
        <dc:format>image/svg+xml</dc:format>
        <dc:type
           rdf:resource="http://purl.org/dc/dcmitype/StillImage" />
        <dc:title></dc:title>
      </cc:Work>
    </rdf:RDF>
  </metadata>
  <g
     inkscape:label="CIrcle"
     inkscape:groupmode="layer"
     id="layer1"
     style="display:inline">
    <path
       style="fill:none;fill-rule:evenodd;stroke:#363636;stroke-width:25;stroke-linecap:butt;stroke-linejoin:miter;stroke-miterlimit:4;stroke-dasharray:none;stroke-opacity:1"
       d="m 365.71429,335.21935 c -19.52381,3.80952 -39.04762,7.61904 -58.57143,11.42857 -1.90476,0 -3.82867,-0.26938 -5.71429,0 -2.98142,0.42592 -5.60071,2.36202 -8.57143,2.85714 -1.40913,0.23486 -2.87658,-0.23485 -4.28571,0 -1.48536,0.24756 -2.795,1.21561 -4.28572,1.42857 -1.88561,0.26938 -3.82423,-0.23625 -5.71428,0 -1.94822,0.24353 -3.78903,1.04352 -5.71429,1.42857 -15.50705,3.10141 -1.9249,-0.20716 -15.71428,2.85715 -1.91663,0.42591 -3.87592,0.73918 -5.71429,1.42857 -1.99399,0.74775 -3.69398,2.18371 -5.71428,2.85714 -4.16497,1.38832 -8.69218,1.46882 -12.85715,2.85714 -10.74393,3.58132 -4.058,2.28608 -15.71428,7.14286 -2.78003,1.15834 -5.87769,1.51027 -8.57143,2.85714 -4.25918,2.12959 -7.29408,6.20887 -11.42857,8.57143 -1.30744,0.74711 -2.85715,0.95238 -4.28572,1.42857 -1.42857,0.95239 -2.81346,1.97379 -4.28571,2.85715 -0.91305,0.54783 -2.10422,0.67565 -2.85714,1.42857 -0.75293,0.75292 -0.7897,2.00531 -1.42858,2.85714 -0.80812,1.0775 -1.90476,1.90476 -2.85714,2.85714 -0.95238,0.95239 -1.77965,2.04903 -2.85714,2.85715 -0.85184,0.63887 -2.10422,0.67565 -2.85714,1.42857 -0.75293,0.75292 -0.7897,2.00531 -1.42858,2.85714 -0.80812,1.0775 -1.90476,1.90476 -2.85714,2.85714 -0.95238,0.95239 -1.77965,2.04903 -2.85714,2.85715 -0.85184,0.63887 -2.02568,0.7634 -2.85714,1.42857 -1.5776,1.26207 -2.64173,3.11143 -4.28572,4.28571 -1.73292,1.2378 -4.20844,1.3513 -5.71428,2.85715 -2.89656,2.89655 -4.68505,6.72292 -7.14286,10 -18.31086,24.41447 3.51799,-6.48593 -8.57143,12.85714 -2.5238,4.03809 -5.80363,7.55365 -8.57143,11.42857 -4.97212,6.96098 -0.9312,1.62959 -5.71428,10 -0.85184,1.49071 -1.8592,2.88859 -2.85715,4.28571 -1.3839,1.93747 -3.40145,3.50363 -4.28571,5.71429 -1.07575,2.68938 -0.59625,5.79703 -1.42857,8.57143 -0.61194,2.03977 -2.01826,3.75688 -2.85715,5.71428 -0.59318,1.3841 -0.75513,2.93885 -1.42857,4.28572 -1.53567,3.07133 -3.94758,5.62692 -5.71428,8.57143 -3.74475,6.24124 1.23132,-1.03409 -2.85715,7.14285 -0.30116,0.60234 -1.26524,0.77525 -1.42857,1.42858 -0.34648,1.38591 0.28017,2.88488 0,4.28571 -0.20882,1.04412 -0.95238,1.90476 -1.42857,2.85714 -0.47619,1.90476 -1.18504,3.76607 -1.42857,5.71429 -0.236257,1.89005 0,3.80952 0,5.71428 0,2.85715 0,5.71429 0,8.57143 0,7.21646 -0.676848,14.41051 1.42857,21.42857 0.73687,2.45622 2.18242,4.66886 2.85714,7.14286 0.76214,2.79449 0.91042,5.7216 1.42858,8.57143 0.43435,2.38894 0.83967,4.78725 1.42857,7.14286 0.36522,1.46088 0.99587,2.84337 1.42857,4.28571 8.23524,28.82335 -2.19255,-7.12577 5.71428,18.57143 1.01952,3.31342 1.90477,6.66667 2.85715,10 1.42857,4.28571 2.93824,8.54524 4.28571,12.85714 1.03404,3.30892 1.76087,6.71118 2.85714,10 1.2866,3.85979 2.99912,7.56879 4.28572,11.42857 2.70025,8.10077 3.58256,14.84649 7.14286,22.85715 1.99116,4.48012 4.95031,8.47205 7.14285,12.85714 2.0974,4.1948 3.61689,8.66234 5.71429,12.85714 1.71693,3.43386 3.99736,6.56614 5.71428,10 1.62185,3.2437 2.7521,6.71368 4.28572,10 3.152,6.75429 6.91569,13.21453 10,20 1.06114,2.33451 1.90476,4.76191 2.85714,7.14286 1.90476,3.80952 3.92944,7.56141 5.71429,11.42857 3.12112,6.76244 2.36853,8.1473 7.14285,14.28572 3.45235,4.43872 7.04669,6.71358 11.42858,10 1.90476,1.42857 3.63295,3.12942 5.71428,4.28571 2.24166,1.24537 4.76191,1.90476 7.14286,2.85714 9.39729,3.75892 4.62829,2.35423 14.28571,4.28572 3.27999,0.65599 12.7442,2.62867 15.71429,2.85714 3.32351,0.25566 6.66667,0 10,0 2.85714,0 5.71428,0 8.57143,0 2.38095,0 4.77646,0.26293 7.14285,0 3.90275,-0.43364 7.53213,-2.37009 11.42858,-2.85714 1.89005,-0.23626 3.82423,0.23625 5.71428,0 1.94822,-0.24353 3.79766,-1.00266 5.71429,-1.42857 2.37028,-0.52673 4.77257,-0.90185 7.14285,-1.42858 1.91663,-0.42591 3.78258,-1.07735 5.71429,-1.42857 4.23704,-0.77037 12.58727,-1.49046 17.14286,-2.85714 2.45621,-0.73686 4.68664,-2.12028 7.14285,-2.85714 2.32571,-0.69771 4.77258,-0.90184 7.14286,-1.42857 3.83326,-0.85184 7.65289,-1.77838 11.42857,-2.85715 3.91912,-1.11974 7.65473,-2.77617 11.42857,-4.28571 2.38096,-0.95238 4.68665,-2.12028 7.14286,-2.85714 2.3257,-0.69771 4.92403,-0.44243 7.14286,-1.42858 2.17574,-0.96699 3.77682,-2.90181 5.71428,-4.28571 1.39713,-0.99794 2.94502,-1.78459 4.28572,-2.85714 2.62932,-2.10346 4.58631,-4.95153 7.14286,-7.14286 1.80775,-1.5495 3.92243,-2.71785 5.71428,-4.28571 8.27537,-7.24095 2.78369,-4.23675 11.42857,-10 3.36927,-2.24618 14.50149,-8.45921 17.14286,-10 2.39841,-1.39907 4.95111,-2.58102 7.14286,-4.28572 2.12631,-1.65379 3.58797,-4.06049 5.71428,-5.71428 12.60383,-9.80298 1.96681,2.3189 15.71429,-11.42858 2.62985,-2.62984 4.41,-6.04879 7.14286,-8.57142 3.49906,-3.22991 7.58854,-5.75542 11.42857,-8.57143 5.5715,-4.08577 11.94448,-8.17861 17.14285,-12.85715 2.50281,-2.25252 4.98725,-4.55612 7.14286,-7.14285 10.0732,-12.08784 3.72187,-7.09406 12.85714,-17.14286 2.71801,-2.98981 5.71429,-5.71429 8.57143,-8.57143 3.33334,-3.33333 6.66667,-6.66667 10,-10 5.91602,-5.91602 10.84949,-10.33214 15.71429,-17.14286 5.22228,-7.31118 9.30187,-15.38138 14.28571,-22.85714 2.27225,-3.40836 4.92773,-6.55424 7.14286,-10 2.07606,-3.22943 3.48281,-6.87594 5.71429,-10 2.55178,-3.5725 6.01964,-6.4275 8.57142,-10 2.23148,-3.12406 3.80953,-6.66667 5.71429,-10 4.48159,-7.84278 10.23307,-16.96737 12.85714,-25.71428 3.39675,-11.32249 -0.44045,-2.96435 2.85715,-12.85715 0.81092,-2.43277 2.30085,-4.63955 2.85714,-7.14285 0.4132,-1.85941 -0.23626,-3.82424 0,-5.71429 0.24353,-1.94822 1.18504,-3.76606 1.42857,-5.71429 0.8116,-6.4928 -0.66104,-5.94933 -1.42857,-12.85714 -0.21035,-1.89311 0.4132,-3.85488 0,-5.71428 -0.55629,-2.5033 -2.30086,-4.63956 -2.85714,-7.14286 -0.4132,-1.85941 0.23625,-3.82423 0,-5.71429 -0.74171,-5.93363 -1.85576,-5.96116 -4.28572,-11.42857 -1.04149,-2.34334 -1.90476,-4.7619 -2.85714,-7.14286 -0.95238,-2.38095 -2.04622,-4.71008 -2.85714,-7.14285 -0.62088,-1.86263 -0.55052,-3.95818 -1.42858,-5.71429 -1.06479,-2.12959 -2.90181,-3.77682 -4.28571,-5.71428 -1.99589,-2.79425 -3.51598,-5.93347 -5.71429,-8.57143 -3.86416,-4.63701 -8.99297,-8.22014 -12.85714,-12.85715 -1.09915,-1.31898 -1.75799,-2.96673 -2.85714,-4.28571 -1.29337,-1.55204 -2.97092,-2.75178 -4.28572,-4.28571 -1.5495,-1.80776 -2.73621,-3.90654 -4.28571,-5.71429 -1.3148,-1.53393 -2.85714,-2.85714 -4.28571,-4.28571 -1.90477,-1.90477 -3.58798,-4.06049 -5.71429,-5.71429 -2.19175,-1.70469 -4.83255,-2.74551 -7.14286,-4.28571 -1.98107,-1.32072 -3.77682,-2.90182 -5.71428,-4.28572 -1.39713,-0.99794 -2.96674,-1.75799 -4.28572,-2.85714 -1.55204,-1.29337 -2.60472,-3.16505 -4.28571,-4.28572 -1.25294,-0.83529 -2.93885,-0.75513 -4.28572,-1.42857 -1.53566,-0.76783 -2.85714,-1.90476 -4.28571,-2.85714 -2.85714,-1.90476 -5.62692,-3.94758 -8.57143,-5.71429 -2.62751,-1.5765 -4.0765,-1.83502 -7.14286,-2.85714 -1.42857,-0.47619 -2.93884,-0.75513 -4.28571,-1.42857 -8.28939,-4.1447 0.0181,-1.9575 -10,-5.71429 -1.83837,-0.68939 -3.79766,-1.00265 -5.71429,-1.42857 -2.37028,-0.52673 -4.91107,-0.47209 -7.14285,-1.42857 -1.23797,-0.53056 -1.70221,-2.16418 -2.85715,-2.85714 -1.29125,-0.77475 -2.85714,-0.95238 -4.28571,-1.42857 -1.42857,-0.47619 -2.85714,-0.95238 -4.28571,-1.42857 -4.5778,-1.52594 -9.47604,-3.68451 -14.28572,-4.28572 -1.89005,-0.23626 -3.85488,0.4132 -5.71428,0 -2.5033,-0.55629 -4.71009,-2.04622 -7.14286,-2.85714 -9.28568,-3.09523 -2.07886,-0.25986 -11.42857,-1.42857 -1.94822,-0.24353 -3.77064,-1.15091 -5.71429,-1.42857 -0.553,-0.079 -9.09624,-0.22594 -10,0 -1.033,0.25825 -1.82414,1.17032 -2.85714,1.42857 -1.84789,0.46197 -3.84651,-0.37356 -5.71429,0 -1.4766,0.29532 -2.80035,1.18101 -4.28571,1.42857 -1.40914,0.23485 -2.87658,-0.23486 -4.28572,0 -1.48535,0.24756 -2.85714,0.95238 -4.28571,1.42857 -1.90476,0.47619 -3.77063,1.15091 -5.71429,1.42857 -1.41421,0.20203 -3.09707,-0.79243 -4.28571,0 -8.74259,5.8284 0.68737,8.20083 -10,2.85714"
       id="path4144"
       inkscape:connector-curvature="0"
       inkscape:export-xdpi="90"
       inkscape:export-ydpi="90" />
  </g>
  <g
     inkscape:groupmode="layer"
     id="layer2"
     inkscape:label="Cross"
     style="display:inline">
    <path
       style="fill:none;fill-rule:evenodd;stroke:#363636;stroke-width:25;stroke-linecap:butt;stroke-linejoin:miter;stroke-miterlimit:4;stroke-dasharray:none;stroke-opacity:1"
       d="m 95.955425,777.61005 c 17.590845,-15.50207 35.129685,-31.06485 52.772535,-46.50623 1.57802,-1.38112 3.28394,-2.60594 4.88634,-3.95798 1.48643,-1.25418 11.21807,-9.63025 12.70451,-10.88444 3.60538,-3.04208 7.71114,-6.20274 10.74995,-9.89493 1.79397,-2.17969 3.06266,-4.77221 4.88635,-6.92647 4.77964,-5.646 13.29342,-12.60507 18.56811,-16.8214 2.19945,-1.75812 4.5317,-3.34004 6.84088,-4.94747 2.90359,-2.02119 6.06072,-3.68722 8.79542,-5.93697 2.50284,-2.05899 4.32273,-4.88672 6.84089,-6.92646 17.72206,-12.42259 7.62962,-4.84006 23.45446,-17.81089 3.24244,-2.65767 6.88364,-4.86889 9.77269,-7.91595 4.96825,-5.24001 8.83409,-11.46688 13.68176,-16.82141 2.33993,-2.58457 5.23751,-4.58858 7.81817,-6.92647 13.41326,-12.15146 7.7309,-7.64738 21.49991,-18.80038 6.15772,-4.98781 12.78188,-9.41777 18.56812,-14.84242 32.85649,-30.80325 -21.70144,13.62309 18.56811,-20.77938 6.57307,-5.61541 13.88388,-10.29629 20.52265,-15.83191 4.44881,-3.70954 8.27707,-8.13825 12.7045,-11.87393 5.35565,-4.51887 11.3333,-8.25452 16.61358,-12.86342 49.62959,-43.31934 -24.76888,18.77399 22.47719,-23.74787 4.86946,-4.38256 10.68965,-7.5809 15.6363,-11.87393 4.19738,-3.64276 7.59535,-8.15521 11.72723,-11.87393 39.63096,-35.6682 -8.0601,9.41961 27.36354,-21.76888 7.84918,-6.91075 13.51424,-14.92722 21.49991,-21.76887 4.27842,-3.66549 9.15673,-6.54681 13.68177,-9.89494 3.9452,-2.91909 7.96005,-5.75449 11.72723,-8.90545 3.73356,-3.12282 6.89438,-6.92804 10.74997,-9.89495 4.31652,-3.32159 9.20224,-5.81302 13.68176,-8.90544 7.1418,-4.93032 13.2602,-11.0739 20.52266,-15.83191 2.70611,-1.77293 12.91657,-7.85317 16.61357,-9.89495 1.27894,-0.70632 2.7236,-1.12163 3.90907,-1.97898 1.12464,-0.81336 1.78187,-2.19226 2.93181,-2.96849 0.85712,-0.57856 2.04848,-0.45286 2.93181,-0.98949 0.79008,-0.47998 1.21744,-1.41925 1.95454,-1.97899 0.49215,-2.18002 2.01043,-0.52304 2.93181,-0.98949 0.41205,-0.20861 0.6515,-0.65966 0.97726,-0.9895 0.32576,-0.32983 0.77125,-0.57229 0.97727,-0.98949 0.14569,-0.29501 -0.23034,-0.75627 0,-0.9895 0.23035,-0.23322 0.74693,0.23323 0.97728,0 0.23034,-0.23322 -0.23035,-0.75626 0,-0.98949 0.23034,-0.23322 0.6859,0.14751 0.97726,0 4.06716,-2.05902 -1.04473,0.0683 0.97727,-1.97898 0.23035,-0.23324 0.74693,0.23322 0.97727,0 0.23035,-0.23324 -0.23034,-0.75628 0,-0.98951 0.23035,-0.23322 0.68591,0.14751 0.97727,0 0.41206,-0.2086 0.65151,-0.65965 0.97727,-0.98949 0.32576,-0.32983 0.77124,-0.57228 0.97727,-0.98949 0.14568,-0.29501 -0.23034,-0.75627 0,-0.98949 0.23035,-0.23323 0.66823,0.10429 0.97727,0 0.69103,-0.23323 1.34846,-0.58039 1.95454,-0.9895 3.24119,-3.28174 -0.92138,0.46645 1.95454,-0.9895 0.8241,-0.4172 1.13042,-1.56178 1.95453,-1.97899 0.25697,-0.13008 3.39804,0 3.90908,0"
       id="path4138"
       inkscape:connector-curvature="0"
       inkscape:export-xdpi="90"
       inkscape:export-ydpi="90" />
    <path
       style="fill:none;fill-rule:evenodd;stroke:#363636;stroke-width:25;stroke-linecap:butt;stroke-linejoin:miter;stroke-miterlimit:4;stroke-dasharray:none;stroke-opacity:1"
       d="m 114.13152,340.19841 c 2.93302,7.13018 5.33478,14.50009 8.79906,21.39054 0.82445,1.63983 2.5466,2.65592 3.91069,3.88919 2.2232,2.00997 4.56248,3.88919 6.84372,5.83378 8.94327,7.62351 4.71917,3.72092 12.70975,11.66757 2.60713,2.59279 5.04661,5.36379 7.82139,7.77837 2.45259,2.13421 5.21426,3.88919 7.82139,5.83379 7.69333,5.73826 8.45101,5.99851 15.64278,12.63986 2.60713,2.4076 13.1986,13.40382 14.66511,14.58446 3.6531,2.94102 7.84876,5.14522 11.73208,7.77838 36.93759,25.04621 -13.4695,-8.98789 17.59814,12.63986 3.85044,2.6805 7.97202,4.97385 11.73208,7.77838 13.74339,10.25085 8.42852,7.11035 18.5758,16.52906 2.53257,2.35074 5.29871,4.44484 7.82139,6.80607 9.36581,8.76642 10.63026,11.56655 21.50882,20.41825 2.72824,2.21992 6.01655,3.68151 8.79907,5.83378 3.09761,2.39601 5.69386,5.3921 8.79906,7.77838 4.07733,3.13333 8.6861,5.54946 12.70975,8.75068 5.87928,4.67755 12.98624,11.94251 18.57581,17.50134 2.93302,2.9169 5.48072,6.27562 8.79906,8.75068 4.56061,3.40166 10.14654,5.29397 14.66511,8.75068 4.01834,3.07404 7.07889,7.22273 10.75441,10.69527 2.84507,2.68796 5.71898,5.36011 8.79906,7.77838 6.24454,4.90278 13.41199,8.58227 19.55347,13.61215 10.87516,8.90677 3.49109,5.03675 13.68744,16.52905 2.29204,2.58336 5.08686,4.69093 7.82139,6.80609 3.14004,2.42883 6.52682,4.52465 9.77673,6.80608 2.29032,1.60779 4.56248,3.241 6.84372,4.86148 2.28124,1.6205 4.70362,3.0606 6.84372,4.8615 24.43513,20.56217 -14.10106,-9.66314 12.70975,11.66756 3.2207,2.56238 9.29142,6.70115 12.70977,9.72297 2.41125,2.13156 4.56247,4.53739 6.84371,6.80608 1.30356,1.2964 2.71095,2.49719 3.91069,3.88919 0.7647,0.88724 1.20312,2.01919 1.95535,2.9169 1.77029,2.11266 4.04509,3.76413 5.86604,5.83378 1.48553,1.68841 5.34726,6.66716 6.84372,8.75068 0.68297,0.95089 1.12448,2.09059 1.95535,2.91688 1.15219,1.14587 2.67352,1.8623 3.9107,2.9169 1.04977,0.89486 1.87085,2.03661 2.93302,2.91689 1.80534,1.49618 4.20431,2.2366 5.86604,3.88919 0.83086,0.82629 1.12448,2.09059 1.95535,2.91689 0.83086,0.82629 2.03034,1.1965 2.93301,1.94459 1.06218,0.88028 1.95535,1.9446 2.93303,2.9169 0.97767,0.97229 1.95535,1.94459 2.93302,2.91689 0.97767,0.9723 2.10343,1.81686 2.93302,2.91689 1.14016,1.51184 1.67056,3.44903 2.93302,4.86149 1.38634,1.55105 3.32873,2.51047 4.88837,3.88919 9.87473,8.72926 -3.10759,-1.19106 9.77673,7.77837 2.66981,1.85859 5.21426,3.88919 7.82139,5.83378 1.30357,0.97231 2.75851,1.77103 3.9107,2.9169 0.83087,0.8263 1.19065,2.02965 1.95535,2.91689 0.0968,0.1123 7.77808,7.71915 7.82139,7.77838 1.54537,2.1132 2.36532,4.69288 3.9107,6.80608 1.0843,1.48272 2.60712,2.59279 3.91069,3.88919 1.62946,1.62049 3.25891,3.24099 4.88837,4.86148 1.30356,1.2964 2.5233,2.68191 3.91069,3.88919 1.22629,1.06711 2.7585,1.77103 3.9107,2.9169 0.0455,0.0452 3.82072,5.72192 3.91069,5.83378 1.15164,1.43163 2.75906,2.45755 3.91069,3.88918 1.77424,1.13679 1.79287,3.34965 2.93303,4.8615 0.92641,1.22841 2.74293,2.72783 3.91069,3.88919 1.4525,1.4445 2.45704,2.91688 4.88837,2.91688 1.34368,0 2.60713,-0.64819 3.91069,-0.97229"
       id="path4140"
       inkscape:connector-curvature="0" />
  </g>
</svg>
