<?xml version="1.0" encoding="UTF-8" standalone="no"?>
<!-- Created with Inkscape (http://www.inkscape.org/) -->

<svg
   xmlns:dc="http://purl.org/dc/elements/1.1/"
   xmlns:cc="http://creativecommons.org/ns#"
   xmlns:rdf="http://www.w3.org/1999/02/22-rdf-syntax-ns#"
   xmlns:svg="http://www.w3.org/2000/svg"
   xmlns="http://www.w3.org/2000/svg"
   xmlns:sodipodi="http://sodipodi.sourceforge.net/DTD/sodipodi-0.dtd"
   xmlns:inkscape="http://www.inkscape.org/namespaces/inkscape"
   width="210mm"
   height="297mm"
   viewBox="0 0 744.09448819 1052.3622047"
   id="svg2"
   version="1.1"
   inkscape:version="0.48.5 r10040"
   sodipodi:docname="icon.svg"
   inkscape:export-filename="D:\DatenV1\swengb_workspace\fhj.swengb.assignments.ttt\src\main\resources\fhj\swengb\assignments\ttt\icon.png"
   inkscape:export-xdpi="44.139999"
   inkscape:export-ydpi="44.139999">
  <defs
     id="defs4" />
  <sodipodi:namedview
     id="base"
     pagecolor="#ffffff"
     bordercolor="#666666"
     borderopacity="1.0"
     inkscape:pageopacity="0.0"
     inkscape:pageshadow="2"
     inkscape:zoom="0.49497475"
     inkscape:cx="321.0924"
     inkscape:cy="238.13006"
     inkscape:document-units="px"
     inkscape:current-layer="layer1"
     showgrid="false"
     inkscape:window-width="1186"
     inkscape:window-height="861"
     inkscape:window-x="276"
     inkscape:window-y="59"
     inkscape:window-maximized="0" />
  <metadata
     id="metadata7">
    <rdf:RDF>
      <cc:Work
         rdf:about="">
        <dc:format>image/svg+xml</dc:format>
        <dc:type
           rdf:resource="http://purl.org/dc/dcmitype/StillImage" />
        <dc:title />
      </cc:Work>
    </rdf:RDF>
  </metadata>
  <g
     inkscape:label="CIrcle"
     inkscape:groupmode="layer"
     id="layer1"
     style="display:inline">
    <path
       style="fill:none;stroke:#181818;stroke-width:12.00000025;stroke-linecap:butt;stroke-linejoin:miter;stroke-opacity:1;stroke-miterlimit:4;stroke-dasharray:none"
       d="m 206.07112,389.70211 c -2.02031,398.00011 -2.02031,398.00011 -2.02031,398.00011"
       id="path3790"
       inkscape:connector-curvature="0"
       transform="translate(-4.9229925e-6,0)" />
    <path
       style="fill:none;stroke:#181818;stroke-width:11.12346935;stroke-linecap:butt;stroke-linejoin:miter;stroke-miterlimit:4;stroke-opacity:1;stroke-dasharray:none;display:inline"
       d="m 361.65391,387.73801 c -1.71153,403.67677 -1.71153,403.67677 -1.71153,403.67677"
       id="path3790-1"
       inkscape:connector-curvature="0" />
    <path
       style="fill:none;stroke:#181818;stroke-width:12.00000025;stroke-linecap:butt;stroke-linejoin:miter;stroke-miterlimit:4;stroke-opacity:1;stroke-dasharray:none;display:inline"
       d="M 486.39611,526.15682 C 88.395997,524.13651 88.395997,524.13651 88.395997,524.13651"
       id="path3790-7"
       inkscape:connector-curvature="0" />
    <path
       style="fill:none;stroke:#181818;stroke-width:12.00000025;stroke-linecap:butt;stroke-linejoin:miter;stroke-miterlimit:4;stroke-opacity:1;stroke-dasharray:none;display:inline"
       d="M 490.42862,667.65806 C 92.428503,665.63775 92.428503,665.63775 92.428503,665.63775"
       id="path3790-4"
       inkscape:connector-curvature="0" />
    <path
       style="fill:none;stroke:#363636;stroke-width:10.07354259;stroke-linecap:butt;stroke-linejoin:miter;stroke-miterlimit:4;stroke-opacity:1;stroke-dasharray:none;display:inline"
       d="m 139.99075,409.51591 c -3.5532,0.73953 -7.10639,1.47906 -10.65958,2.2186 -0.34665,0 -0.69678,-0.0523 -1.03996,0 -0.5426,0.0826 -1.01929,0.45853 -1.55993,0.55465 -0.25645,0.0457 -0.52352,-0.0456 -0.77997,0 -0.27032,0.0481 -0.50867,0.23597 -0.77996,0.27732 -0.34318,0.0523 -0.69599,-0.0458 -1.03996,0 -0.35456,0.0473 -0.68958,0.20258 -1.03995,0.27733 -2.82218,0.60206 -0.35032,-0.0402 -2.8599,0.55464 -0.3488,0.0826 -0.70539,0.14349 -1.03995,0.27732 -0.36288,0.14517 -0.67229,0.42393 -1.03996,0.55465 -0.75799,0.26952 -1.58192,0.28514 -2.33991,0.55464 -1.95531,0.69525 -0.7385,0.4438 -2.85987,1.38665 -0.50595,0.22484 -1.0697,0.29317 -1.55993,0.55464 -0.77514,0.41341 -1.32748,1.20531 -2.07992,1.66394 -0.23796,0.14503 -0.51998,0.18489 -0.77998,0.27732 -0.25999,0.18489 -0.51202,0.38317 -0.77996,0.55466 -0.16618,0.10633 -0.38295,0.13116 -0.51999,0.27731 -0.13702,0.14617 -0.1437,0.38929 -0.25999,0.55465 -0.14706,0.20918 -0.34664,0.36977 -0.51997,0.55465 -0.17331,0.18489 -0.32389,0.39778 -0.51998,0.55465 -0.15503,0.12403 -0.38294,0.13118 -0.51997,0.27732 -0.13703,0.14617 -0.14374,0.38928 -0.26,0.55467 -0.14707,0.20916 -0.34664,0.36975 -0.51998,0.55464 -0.17332,0.18489 -0.32389,0.39777 -0.51997,0.55465 -0.15502,0.12401 -0.36865,0.14819 -0.51998,0.27732 -0.28713,0.245 -0.48079,0.60401 -0.77997,0.83197 -0.31538,0.2403 -0.76592,0.26232 -1.03996,0.55465 -0.52715,0.56231 -0.85265,1.30511 -1.29995,1.94127 -3.332432,4.73952 0.64026,-1.25908 -1.559932,2.49592 -0.45933,0.7839 -1.05623,1.46636 -1.55994,2.2186 -0.90488,1.35131 -0.16948,0.31634 -1.03996,1.94126 -0.15502,0.2894 -0.33837,0.56077 -0.51998,0.83198 -0.25186,0.37612 -0.61904,0.68015 -0.77997,1.1093 -0.19577,0.52208 -0.10856,1.12536 -0.25999,1.66395 -0.11138,0.39597 -0.3673,0.72931 -0.51998,1.10929 -0.10788,0.2687 -0.13742,0.57052 -0.25998,0.83197 -0.27948,0.59622 -0.71843,1.09235 -1.03996,1.66396 -0.68152,1.21158 0.22409,-0.20075 -0.51999,1.38662 -0.0548,0.11692 -0.23025,0.15049 -0.25998,0.27732 -0.0631,0.26904 0.0511,0.56003 0,0.83197 -0.038,0.2027 -0.17334,0.36978 -0.25998,0.55465 -0.0867,0.36977 -0.21567,0.73109 -0.26,1.10929 -0.0429,0.36691 0,0.73953 0,1.10931 0,0.55464 0,1.1093 0,1.66394 0,1.40091 -0.12318,2.79746 0.26,4.15987 0.13409,0.47682 0.39717,0.90635 0.51996,1.38662 0.13872,0.5425 0.16569,1.11071 0.25999,1.66393 0.079,0.46378 0.15283,0.92935 0.26,1.38664 0.0664,0.28359 0.18124,0.55196 0.25999,0.83197 1.49874,5.5954 -0.39903,-1.38331 1.03995,3.60522 0.18555,0.64322 0.34666,1.29418 0.51998,1.94127 0.25999,0.83197 0.53474,1.65886 0.77997,2.49593 0.18818,0.64234 0.32046,1.3028 0.51997,1.94125 0.23416,0.7493 0.54583,1.46931 0.77997,2.21859 0.49143,1.57259 0.65201,2.88212 1.29997,4.4372 0.36237,0.86973 0.9009,1.64466 1.29994,2.49591 0.38171,0.81433 0.658252,1.6816 1.039952,2.49592 0.31247,0.66661 0.72748,1.27467 1.03995,1.94128 0.29517,0.62969 0.50087,1.30332 0.77998,1.94127 0.57364,1.3112 1.2586,2.5653 1.81993,3.88256 0.19312,0.45317 0.34665,0.92441 0.51997,1.3866 0.34666,0.73954 0.71512,1.46787 1.03996,2.2186 0.56803,1.31277 0.43106,1.58161 1.29994,2.77325 0.6283,0.86167 1.28245,1.30328 2.07992,1.94127 0.34665,0.27732 0.66117,0.6075 1.03996,0.83196 0.40796,0.24176 0.86664,0.36976 1.29996,0.55466 1.71022,0.7297 0.8423,0.45702 2.59987,0.83197 0.59694,0.12735 2.31935,0.51028 2.85989,0.55464 0.60487,0.0497 1.21329,0 1.81994,0 0.51997,0 1.03993,0 1.55992,0 0.43332,0 0.86927,0.051 1.29995,0 0.71028,-0.0841 1.37079,-0.46008 2.07992,-0.55464 0.34398,-0.0458 0.69598,0.0458 1.03995,0 0.35457,-0.0473 0.69116,-0.19465 1.03997,-0.27732 0.43137,-0.10226 0.86858,-0.17508 1.29994,-0.27732 0.34882,-0.0826 0.68839,-0.20914 1.03995,-0.27733 0.77112,-0.14956 2.29079,-0.28934 3.11988,-0.55466 0.44702,-0.14303 0.85294,-0.41159 1.29995,-0.55464 0.42324,-0.13544 0.86856,-0.17507 1.29994,-0.27732 0.69764,-0.16536 1.39277,-0.34523 2.07992,-0.55465 0.71325,-0.21737 1.39311,-0.53894 2.07992,-0.83196 0.43331,-0.18489 0.85293,-0.41162 1.29995,-0.55466 0.42325,-0.13544 0.89613,-0.0859 1.29994,-0.27734 0.39596,-0.18771 0.68735,-0.56332 1.03995,-0.83196 0.25427,-0.19372 0.53598,-0.34644 0.77997,-0.55464 0.47853,-0.40834 0.83469,-0.96125 1.29995,-1.38663 0.32899,-0.3008 0.71385,-0.52761 1.03996,-0.83197 1.50606,-1.40567 0.50661,-0.82247 2.07992,-1.94127 0.61317,-0.43606 2.63915,-1.64217 3.11988,-1.94128 0.43647,-0.27159 0.90106,-0.50105 1.29994,-0.83196 0.38697,-0.32106 0.65299,-0.78826 1.03995,-1.10931 2.2938,-1.90302 0.35795,0.45017 2.85988,-2.2186 0.47861,-0.51051 0.8026,-1.17423 1.29996,-1.66395 0.63679,-0.627 1.38105,-1.11727 2.07992,-1.66394 1.01395,-0.79315 2.17379,-1.5877 3.11985,-2.49591 0.45551,-0.43729 0.90766,-0.88447 1.29996,-1.38663 1.83324,-2.34658 0.67735,-1.37714 2.33989,-3.32789 0.49467,-0.5804 1.03996,-1.10931 1.55994,-1.66395 0.60665,-0.64707 1.21328,-1.29418 1.81992,-1.94126 1.07668,-1.14846 1.97454,-2.00576 2.8599,-3.3279 0.9504,-1.41931 1.69286,-2.98594 2.59988,-4.4372 0.41354,-0.66165 0.89683,-1.27236 1.29997,-1.94126 0.37781,-0.62691 0.63383,-1.3348 1.03994,-1.94126 0.46442,-0.69354 1.09554,-1.24776 1.55995,-1.94128 0.40609,-0.60647 0.6933,-1.29419 1.03995,-1.94127 0.8156,-1.5225 1.86233,-3.29382 2.33991,-4.99184 0.61817,-2.198 -0.0803,-0.57547 0.51998,-2.49592 0.14757,-0.47227 0.41873,-0.90065 0.51997,-1.38662 0.0752,-0.36097 -0.043,-0.74241 0,-1.1093 0.0442,-0.3782 0.21566,-0.73109 0.26,-1.10931 0.1477,-1.26042 -0.12031,-1.15492 -0.26,-2.49591 -0.0383,-0.36751 0.0752,-0.74833 0,-1.10929 -0.10123,-0.48596 -0.41874,-0.90066 -0.51997,-1.38664 -0.0752,-0.36096 0.0429,-0.74237 0,-1.10929 -0.13499,-1.15187 -0.33775,-1.15723 -0.77996,-2.21858 -0.18956,-0.45492 -0.34668,-0.92442 -0.52,-1.38663 -0.17332,-0.46221 -0.37241,-0.91437 -0.51997,-1.38662 -0.113,-0.36159 -0.10022,-0.76839 -0.26,-1.1093 -0.19378,-0.41341 -0.52811,-0.73319 -0.77996,-1.1093 -0.36324,-0.54243 -0.6399,-1.15185 -1.03995,-1.66395 -0.70327,-0.90017 -1.63667,-1.59574 -2.33992,-2.49591 -0.20003,-0.25605 -0.31994,-0.57592 -0.51998,-0.83199 -0.23539,-0.30129 -0.54067,-0.53418 -0.77996,-0.83196 -0.282,-0.35093 -0.49798,-0.75836 -0.77997,-1.1093 -0.2393,-0.29777 -0.51998,-0.55464 -0.77998,-0.83197 -0.34664,-0.36976 -0.65297,-0.78826 -1.03994,-1.10929 -0.3989,-0.33094 -0.8795,-0.53299 -1.29995,-0.83197 -0.36055,-0.25641 -0.68735,-0.56332 -1.03997,-0.83197 -0.25426,-0.19374 -0.53991,-0.34129 -0.77997,-0.55466 -0.28245,-0.25108 -0.47403,-0.61443 -0.77995,-0.83199 -0.22803,-0.16214 -0.53486,-0.14659 -0.77997,-0.27731 -0.27949,-0.14906 -0.51999,-0.36976 -0.77998,-0.55465 -0.51996,-0.36975 -1.02405,-0.76634 -1.55993,-1.10929 -0.47819,-0.30605 -0.7419,-0.35624 -1.29995,-0.55465 -0.25998,-0.0924 -0.53485,-0.14659 -0.77997,-0.27733 -1.50861,-0.80462 0.003,-0.38 -1.81993,-1.10929 -0.33456,-0.13383 -0.69114,-0.19465 -1.03994,-0.27733 -0.43138,-0.10226 -0.89379,-0.0917 -1.29994,-0.27733 -0.22533,-0.10305 -0.30981,-0.42011 -0.51999,-0.55464 -0.235,-0.1504 -0.51999,-0.18489 -0.77997,-0.27733 -0.25999,-0.0924 -0.51998,-0.18488 -0.77996,-0.27732 -0.83314,-0.29623 -1.72458,-0.71527 -2.59991,-0.83198 -0.34397,-0.0458 -0.70154,0.0801 -1.03995,0 -0.45559,-0.10802 -0.8572,-0.39723 -1.29994,-0.55464 -1.68993,-0.60086 -0.37835,-0.0503 -2.07992,-0.27732 -0.35456,-0.0473 -0.68623,-0.22343 -1.03997,-0.27733 -0.10056,-0.0153 -1.65544,-0.0438 -1.81992,0 -0.18799,0.0502 -0.33198,0.2272 -0.51997,0.27733 -0.33631,0.0896 -0.70004,-0.0725 -1.03997,0 -0.26872,0.0573 -0.50964,0.22926 -0.77995,0.27732 -0.25647,0.0456 -0.52353,-0.0457 -0.77998,0 -0.27033,0.0481 -0.51998,0.18487 -0.77997,0.27732 -0.34665,0.0924 -0.68622,0.22342 -1.03996,0.27732 -0.25737,0.0393 -0.56365,-0.15383 -0.77995,0 -1.5911,1.13145 0.12508,1.59201 -1.81994,0.55464"
       id="path4144-0"
       inkscape:connector-curvature="0"
       inkscape:export-xdpi="90"
       inkscape:export-ydpi="90" />
    <path
       style="fill:none;stroke:#363636;stroke-width:9.6690073;stroke-linecap:butt;stroke-linejoin:miter;stroke-miterlimit:4;stroke-opacity:1;stroke-dasharray:none;display:inline"
       d="m 284.24607,546.80006 c -3.70527,0.77232 -7.41055,1.54465 -11.11581,2.31697 -0.36149,0 -0.72661,-0.0546 -1.08447,0 -0.56583,0.0863 -1.06292,0.47887 -1.62671,0.57925 -0.26743,0.0477 -0.54592,-0.0477 -0.81334,0 -0.2819,0.0503 -0.53045,0.24644 -0.81335,0.28963 -0.35786,0.0546 -0.72578,-0.0479 -1.08447,0 -0.36974,0.0494 -0.7191,0.21156 -1.08447,0.28962 -2.94296,0.62875 -0.36531,-0.042 -2.98229,0.57923 -0.36374,0.0863 -0.73558,0.14987 -1.08446,0.28963 -0.37843,0.1516 -0.70107,0.44272 -1.08448,0.57925 -0.79044,0.28146 -1.64962,0.29778 -2.44005,0.57924 -2.03901,0.72608 -0.77013,0.46347 -2.98229,1.44812 -0.5276,0.23483 -1.11548,0.30618 -1.62669,0.57924 -0.80833,0.43174 -1.38429,1.25876 -2.16894,1.73773 -0.24814,0.15147 -0.54224,0.19309 -0.81337,0.28962 -0.27111,0.19309 -0.53394,0.40016 -0.81334,0.57926 -0.17328,0.11106 -0.39934,0.13697 -0.54224,0.28962 -0.14288,0.15264 -0.14986,0.40653 -0.27112,0.57924 -0.15336,0.21844 -0.36148,0.38615 -0.54223,0.57924 -0.18073,0.19309 -0.33775,0.41542 -0.54223,0.57925 -0.16167,0.12952 -0.39934,0.13698 -0.54223,0.28962 -0.1429,0.15265 -0.14988,0.40654 -0.27113,0.57925 -0.15336,0.21844 -0.36148,0.38616 -0.54224,0.57924 -0.18073,0.19309 -0.33774,0.41541 -0.54223,0.57924 -0.16165,0.12953 -0.38442,0.15478 -0.54222,0.28963 -0.29942,0.25587 -0.50136,0.63079 -0.81336,0.86886 -0.32887,0.25095 -0.79869,0.27396 -1.08447,0.57924 -0.54971,0.58725 -0.88913,1.36298 -1.35558,2.02736 -3.47507,4.9497 0.66766,-1.31491 -1.62669,2.60661 -0.479,0.81867 -1.10145,1.53139 -1.62672,2.31698 -0.94361,1.41124 -0.17673,0.33037 -1.08446,2.02734 -0.16167,0.30224 -0.35286,0.58564 -0.54224,0.86888 -0.26264,0.39279 -0.64554,0.71031 -0.81336,1.15849 -0.20415,0.54523 -0.11315,1.17527 -0.27111,1.73773 -0.11613,0.41355 -0.38303,0.76166 -0.54224,1.15849 -0.11257,0.28061 -0.1433,0.59581 -0.27111,0.86887 -0.29144,0.62266 -0.74917,1.14079 -1.08447,1.73775 -0.71069,1.26531 0.23368,-0.20966 -0.54224,1.4481 -0.0571,0.12211 -0.24012,0.15717 -0.27111,0.28962 -0.0658,0.28098 0.0532,0.58488 0,0.86886 -0.0396,0.21169 -0.18075,0.38618 -0.27112,0.57925 -0.0904,0.38616 -0.2249,0.76351 -0.27112,1.15849 -0.0448,0.38319 0,0.77233 0,1.15848 0,0.57925 0,1.15851 0,1.73774 0,1.46305 -0.12845,2.92152 0.27112,4.34434 0.13984,0.49798 0.41418,0.94655 0.54223,1.44813 0.14465,0.56653 0.17279,1.15995 0.27112,1.73771 0.0824,0.48434 0.15936,0.97056 0.27112,1.44812 0.0693,0.29617 0.189,0.57645 0.27112,0.86887 1.56289,5.84353 -0.41612,-1.44465 1.08446,3.76509 0.19349,0.67174 0.36149,1.35158 0.54224,2.02736 0.27111,0.86887 0.55762,1.73243 0.81335,2.6066 0.19624,0.67084 0.33417,1.36059 0.54223,2.02734 0.24418,0.78253 0.56919,1.53448 0.81335,2.31698 0.51246,1.64232 0.67992,3.00993 1.3556,4.63397 0.37788,0.90829 0.93946,1.71758 1.35558,2.60659 0.39805,0.85045 0.68643,1.75618 1.08447,2.60661 0.32584,0.69617 0.75861,1.33119 1.08446,2.02735 0.3078,0.65762 0.5223,1.36112 0.81337,2.02736 0.59818,1.36936 1.31246,2.67907 1.8978,4.05473 0.2014,0.47328 0.3615,0.9654 0.54223,1.4481 0.36151,0.77233 0.74574,1.53297 1.08449,2.31698 0.59232,1.371 0.44951,1.65175 1.35557,2.89623 0.6552,0.89989 1.33733,1.36108 2.16894,2.02736 0.36148,0.28961 0.68948,0.63444 1.08446,0.86886 0.42543,0.25248 0.90374,0.38616 1.35561,0.57925 1.78342,0.76206 0.87835,0.47728 2.71115,0.86886 0.62249,0.133 2.41863,0.53292 2.9823,0.57925 0.63074,0.0519 1.26521,0 1.89782,0 0.54224,0 1.08446,0 1.6267,0 0.45186,0 0.90648,0.0534 1.35559,0 0.74066,-0.0878 1.42945,-0.4805 2.16893,-0.57925 0.3587,-0.0479 0.72578,0.0479 1.08447,0 0.36974,-0.0494 0.72073,-0.20328 1.08448,-0.28962 0.44983,-0.10677 0.90574,-0.18284 1.35557,-0.28961 0.36375,-0.0863 0.71787,-0.21843 1.08447,-0.28963 0.80411,-0.15619 2.38884,-0.30218 3.25341,-0.57925 0.46615,-0.14938 0.88944,-0.42984 1.35558,-0.57925 0.44137,-0.14144 0.90574,-0.18283 1.35559,-0.28961 0.72749,-0.1727 1.45238,-0.36054 2.16893,-0.57925 0.74379,-0.227 1.45273,-0.56283 2.16894,-0.86886 0.45187,-0.19308 0.88944,-0.42986 1.35559,-0.57925 0.44138,-0.14144 0.93449,-0.0897 1.35558,-0.28962 0.41292,-0.19605 0.71678,-0.58831 1.08447,-0.86887 0.26515,-0.20232 0.55892,-0.36179 0.81335,-0.57924 0.49901,-0.42645 0.87041,-1.00386 1.35559,-1.44812 0.34308,-0.31413 0.74441,-0.55101 1.08447,-0.86886 1.57052,-1.46801 0.52829,-0.85893 2.16894,-2.02736 0.63942,-0.45539 2.75212,-1.71498 3.25341,-2.02736 0.45516,-0.28363 0.93962,-0.52327 1.35558,-0.86887 0.40354,-0.33528 0.68094,-0.8232 1.08446,-1.15848 2.39199,-1.98741 0.37327,0.47012 2.9823,-2.31699 0.4991,-0.53315 0.83693,-1.2263 1.35559,-1.73773 0.66405,-0.65482 1.44016,-1.16682 2.16894,-1.73774 1.05736,-0.82832 2.26683,-1.6581 3.25338,-2.60659 0.475,-0.45668 0.94651,-0.9237 1.35561,-1.44812 1.91169,-2.45064 0.70633,-1.43821 2.44003,-3.47546 0.51584,-0.60615 1.08447,-1.15851 1.62671,-1.73774 0.63261,-0.67578 1.26521,-1.35157 1.89782,-2.02735 1.12275,-1.19939 2.05904,-2.09471 2.9823,-3.47547 0.99108,-1.48226 1.76533,-3.11836 2.71116,-4.63396 0.43124,-0.691 0.93522,-1.32879 1.35561,-2.02736 0.39398,-0.65472 0.66096,-1.39399 1.08445,-2.02736 0.48429,-0.72428 1.14243,-1.30307 1.62671,-2.02734 0.42348,-0.63339 0.72299,-1.35159 1.08447,-2.02737 0.85052,-1.59002 1.94205,-3.4399 2.44005,-5.2132 0.64464,-2.29548 -0.0836,-0.60099 0.54224,-2.60661 0.1539,-0.49321 0.43666,-0.94059 0.54223,-1.44811 0.0784,-0.37698 -0.0448,-0.77532 0,-1.15849 0.0461,-0.39496 0.22489,-0.76351 0.27112,-1.1585 0.15403,-1.31631 -0.12545,-1.20613 -0.27112,-2.60659 -0.0399,-0.38381 0.0784,-0.78152 0,-1.15849 -0.10556,-0.5075 -0.43665,-0.9406 -0.54223,-1.44812 -0.0784,-0.37697 0.0447,-0.7753 0,-1.15848 -0.14076,-1.20295 -0.35219,-1.20854 -0.81334,-2.31697 -0.19767,-0.47509 -0.3615,-0.96541 -0.54226,-1.44812 -0.18073,-0.48271 -0.38833,-0.95491 -0.54222,-1.44811 -0.11783,-0.37763 -0.10448,-0.80247 -0.27112,-1.1585 -0.20207,-0.43174 -0.55072,-0.76569 -0.81335,-1.15849 -0.37879,-0.56648 -0.66728,-1.20292 -1.08447,-1.73773 -0.73335,-0.94009 -1.7067,-1.66651 -2.44006,-2.6066 -0.20859,-0.2674 -0.33363,-0.60146 -0.54224,-0.86887 -0.24545,-0.31466 -0.56381,-0.55788 -0.81334,-0.86887 -0.29407,-0.36649 -0.51929,-0.79199 -0.81335,-1.15849 -0.24953,-0.31097 -0.54224,-0.57923 -0.81336,-0.86886 -0.36148,-0.38616 -0.68094,-0.82321 -1.08446,-1.15849 -0.41597,-0.3456 -0.91714,-0.55662 -1.3556,-0.86886 -0.37597,-0.26777 -0.71676,-0.5883 -1.08447,-0.86887 -0.26514,-0.20232 -0.56303,-0.35641 -0.81335,-0.57924 -0.29454,-0.26222 -0.49433,-0.64169 -0.81335,-0.86888 -0.23778,-0.16935 -0.55773,-0.1531 -0.81335,-0.28961 -0.29145,-0.15567 -0.54224,-0.38617 -0.81336,-0.57926 -0.54222,-0.38614 -1.06788,-0.80032 -1.6267,-1.15848 -0.49865,-0.31962 -0.77364,-0.37203 -1.35558,-0.57925 -0.27112,-0.0965 -0.55774,-0.15309 -0.81335,-0.28963 -1.57319,-0.84028 0.003,-0.39684 -1.89783,-1.15848 -0.34888,-0.13976 -0.72072,-0.20328 -1.08446,-0.28962 -0.44983,-0.10678 -0.93203,-0.0958 -1.35557,-0.28963 -0.23496,-0.10757 -0.32306,-0.43875 -0.54225,-0.57923 -0.24506,-0.15708 -0.54224,-0.19309 -0.81334,-0.28963 -0.27113,-0.0965 -0.54224,-0.19308 -0.81335,-0.28963 -0.8688,-0.30936 -1.79839,-0.74698 -2.71119,-0.86887 -0.35869,-0.0479 -0.73157,0.0837 -1.08445,0 -0.47509,-0.11278 -0.8939,-0.41484 -1.35559,-0.57923 -1.76225,-0.62752 -0.39454,-0.0526 -2.16894,-0.28962 -0.36974,-0.0494 -0.7156,-0.23333 -1.08447,-0.28963 -0.10491,-0.016 -1.72631,-0.0457 -1.89783,0 -0.19604,0.0524 -0.34618,0.23727 -0.54222,0.28963 -0.35071,0.0936 -0.73,-0.0757 -1.08447,0 -0.28023,0.0598 -0.53148,0.23943 -0.81335,0.28962 -0.26744,0.0476 -0.54592,-0.0477 -0.81336,0 -0.28189,0.0503 -0.54223,0.19307 -0.81335,0.28961 -0.36148,0.0965 -0.71559,0.23333 -1.08447,0.28962 -0.26839,0.0409 -0.58777,-0.16065 -0.81334,0 -1.6592,1.18163 0.13044,1.6626 -1.89783,0.57924"
       id="path4144-0-7"
       inkscape:connector-curvature="0"
       inkscape:export-xdpi="90"
       inkscape:export-ydpi="90" />
  </g>
  <g
     inkscape:groupmode="layer"
     id="layer2"
     inkscape:label="Cross"
     style="display:inline">
    <path
       style="fill:none;stroke:#363636;stroke-width:10.63583755;stroke-linecap:butt;stroke-linejoin:miter;stroke-miterlimit:4;stroke-opacity:1;stroke-dasharray:none"
       d="m 376.1899,512.4824 c 3.14833,-3.37238 6.28735,-6.75796 9.44498,-10.11713 0.28243,-0.30046 0.58775,-0.5669 0.87454,-0.86104 0.26604,-0.27283 2.00776,-2.09499 2.2738,-2.36784 0.64527,-0.66178 1.3801,-1.34936 1.92397,-2.15257 0.32108,-0.47418 0.54815,-1.03817 0.87454,-1.50681 0.85544,-1.22825 2.37919,-2.74215 3.32324,-3.65939 0.39364,-0.38246 0.81106,-0.7266 1.22435,-1.07629 0.51966,-0.4397 1.08472,-0.80213 1.57416,-1.29154 0.44795,-0.44793 0.77367,-1.06309 1.22435,-1.50681 3.17182,-2.70245 1.36552,-1.05292 4.19777,-3.87464 0.58033,-0.57817 1.23201,-1.0592 1.74907,-1.72207 0.8892,-1.13993 1.58109,-2.49454 2.44871,-3.65939 0.41878,-0.56226 0.93738,-0.99821 1.39926,-1.50681 2.40065,-2.64347 1.38364,-1.66363 3.84795,-4.0899 1.10209,-1.08506 2.28765,-2.04877 3.32324,-3.22887 5.88051,-6.70104 -3.88403,2.96362 3.32324,-4.52042 1.17641,-1.2216 2.48487,-2.23989 3.67305,-3.44413 0.79622,-0.80699 1.48139,-1.77042 2.27379,-2.58309 0.95854,-0.98306 2.02839,-1.79572 2.97342,-2.79836 8.88248,-9.42384 -4.43302,4.08417 4.02287,-5.16619 0.87151,-0.9534 1.91318,-1.64918 2.79851,-2.5831 0.75123,-0.79246 1.35939,-1.77411 2.09889,-2.5831 7.09297,-7.75937 -1.44256,2.04918 4.8974,-4.73566 1.40481,-1.50339 2.41871,-3.24732 3.84796,-4.73569 0.76573,-0.7974 1.63883,-1.42421 2.4487,-2.15258 0.70609,-0.63502 1.42465,-1.25184 2.09889,-1.93731 0.66821,-0.67936 1.23392,-1.50715 1.92398,-2.15259 0.77255,-0.72259 1.64698,-1.26459 2.44869,-1.93731 1.27822,-1.07257 2.37325,-2.40906 3.67306,-3.44414 0.48433,-0.38569 2.31175,-1.70841 2.97342,-2.15258 0.2289,-0.15366 0.48746,-0.244 0.69963,-0.43051 0.20128,-0.17694 0.3189,-0.47692 0.52472,-0.64578 0.15341,-0.12586 0.36663,-0.0985 0.52473,-0.21526 0.1414,-0.10441 0.21788,-0.30874 0.34981,-0.43051 0.0881,-0.47425 0.35981,-0.11379 0.52472,-0.21526 0.0738,-0.0454 0.1166,-0.14351 0.1749,-0.21526 0.0583,-0.0718 0.13804,-0.1245 0.17491,-0.21526 0.0261,-0.0642 -0.0412,-0.16452 0,-0.21526 0.0413,-0.0508 0.13368,0.0507 0.17491,0 0.0413,-0.0508 -0.0413,-0.16452 0,-0.21526 0.0413,-0.0508 0.12276,0.0321 0.1749,0 0.72793,-0.44792 -0.18697,0.0149 0.17491,-0.4305 0.0413,-0.0507 0.13369,0.0508 0.1749,0 0.0413,-0.0507 -0.0413,-0.16453 0,-0.21527 0.0413,-0.0508 0.12277,0.0321 0.17492,0 0.0738,-0.0454 0.1166,-0.1435 0.1749,-0.21526 0.0583,-0.0718 0.13804,-0.12449 0.17491,-0.21525 0.0261,-0.0642 -0.0413,-0.16453 0,-0.21526 0.0413,-0.0507 0.1196,0.0226 0.17491,0 0.12368,-0.0507 0.24134,-0.12626 0.34981,-0.21525 0.5801,-0.71393 -0.1649,0.10146 0.34982,-0.21526 0.1475,-0.0908 0.20232,-0.33977 0.34981,-0.43052 0.046,-0.0283 0.60817,0 0.69963,0"
       id="path4138"
       inkscape:connector-curvature="0"
       inkscape:export-xdpi="90"
       inkscape:export-ydpi="90" />
    <path
       style="fill:none;stroke:#363636;stroke-width:10.63583755;stroke-linecap:butt;stroke-linejoin:miter;stroke-miterlimit:4;stroke-opacity:1;stroke-dasharray:none"
       d="m 379.44297,417.32634 c 0.52494,1.55112 0.9548,3.1544 1.57481,4.65338 0.14756,0.35672 0.45578,0.57778 0.69992,0.84606 0.3979,0.43726 0.81658,0.84607 1.22486,1.26911 1.60063,1.65844 0.84462,0.80946 2.27473,2.53819 0.46662,0.56405 0.90322,1.16686 1.39985,1.69214 0.43895,0.46429 0.93322,0.84607 1.39983,1.2691 1.37692,1.24833 1.51252,1.30495 2.79967,2.74972 0.46662,0.52377 2.36223,2.91592 2.6247,3.17275 0.65382,0.6398 1.40473,1.11932 2.09976,1.69215 6.61092,5.44864 -2.41072,-1.95525 3.14962,2.74971 0.68915,0.58313 1.4268,1.08203 2.09976,1.69214 2.45973,2.23 1.5085,1.5468 3.32461,3.59579 0.45328,0.51138 0.94835,0.96693 1.39985,1.48061 1.67624,1.90708 1.90255,2.51623 3.84954,4.44186 0.48829,0.48293 1.07682,0.80088 1.57482,1.2691 0.55439,0.52124 1.01906,1.17302 1.57481,1.69214 0.72975,0.68163 1.55461,1.20725 2.27474,1.90365 1.05225,1.01757 2.32422,2.59802 3.32461,3.8073 0.52494,0.63455 0.98092,1.36522 1.57482,1.90366 0.81623,0.74001 1.81598,1.15167 2.6247,1.90365 0.71918,0.66874 1.26694,1.57126 1.92477,2.32669 0.5092,0.58474 1.02355,1.16606 1.57481,1.69213 1.11762,1.06657 2.40042,1.86702 3.4996,2.96123 1.94639,1.93761 0.62482,1.09571 2.44971,3.5958 0.41022,0.56199 0.91042,1.02048 1.39984,1.48062 0.56199,0.52838 1.16814,0.9843 1.74979,1.48061 0.40992,0.34977 0.81658,0.70506 1.22486,1.05758 0.40829,0.35253 0.84183,0.66582 1.22486,1.05759 4.37329,4.47317 -2.52374,-2.10215 2.27473,2.5382 0.57643,0.55743 1.66294,1.4578 2.27474,2.11517 0.43156,0.46372 0.81658,0.98709 1.22486,1.48062 0.23331,0.28203 0.4852,0.54325 0.69992,0.84607 0.13686,0.19301 0.21532,0.43926 0.34995,0.63456 0.31684,0.45959 0.72398,0.81886 1.04988,1.26909 0.26587,0.36731 0.95703,1.4504 1.22486,1.90366 0.12224,0.20686 0.20125,0.45479 0.34996,0.63455 0.20621,0.24928 0.4785,0.40513 0.69991,0.63454 0.18789,0.19468 0.33484,0.44306 0.52495,0.63455 0.32311,0.32549 0.75247,0.48656 1.04987,0.84608 0.1487,0.17975 0.20125,0.45479 0.34997,0.63455 0.1487,0.17974 0.36338,0.26029 0.52493,0.42303 0.19011,0.1915 0.34996,0.42303 0.52494,0.63456 0.17498,0.21151 0.34996,0.42303 0.52494,0.63454 0.17498,0.21152 0.37646,0.39525 0.52494,0.63456 0.20407,0.32888 0.29898,0.75031 0.52494,1.05759 0.24812,0.33742 0.59576,0.54613 0.8749,0.84606 1.76733,1.89899 -0.55619,-0.25911 1.74979,1.69213 0.47783,0.40432 0.93323,0.84606 1.39984,1.2691 0.23331,0.21152 0.49371,0.38528 0.69991,0.63455 0.14871,0.17976 0.2131,0.44154 0.34997,0.63456 0.0174,0.0244 1.39208,1.67925 1.39983,1.69213 0.27659,0.45972 0.42333,1.02091 0.69992,1.48062 0.19407,0.32255 0.46661,0.56404 0.69992,0.84607 0.29163,0.35252 0.58327,0.70505 0.8749,1.05758 0.2333,0.28203 0.45161,0.58344 0.69992,0.84607 0.21947,0.23214 0.4937,0.38527 0.69991,0.63455 0.008,0.01 0.68382,1.24477 0.69992,1.2691 0.20612,0.31145 0.49381,0.53463 0.69992,0.84607 0.31754,0.24729 0.32088,0.7287 0.52494,1.05758 0.16581,0.26724 0.49092,0.59343 0.69992,0.84607 0.25996,0.31425 0.43975,0.63455 0.87489,0.63455 0.2405,0 0.46662,-0.14101 0.69992,-0.21151"
       id="path4140"
       inkscape:connector-curvature="0" />
    <path
       style="fill:none;stroke:#363636;stroke-width:10.63583755;stroke-linecap:butt;stroke-linejoin:miter;stroke-miterlimit:4;stroke-opacity:1;stroke-dasharray:none;display:inline"
       d="m 380.74512,641.83221 c 3.14834,-3.37238 6.28736,-6.75797 9.44499,-10.11714 0.28243,-0.30046 0.58775,-0.5669 0.87454,-0.86104 0.26603,-0.27283 2.00776,-2.09499 2.2738,-2.36784 0.64527,-0.66178 1.38009,-1.34936 1.92397,-2.15257 0.32108,-0.47418 0.54814,-1.03817 0.87454,-1.50681 0.85544,-1.22825 2.37919,-2.74215 3.32324,-3.65939 0.39364,-0.38246 0.81105,-0.7266 1.22434,-1.07629 0.51967,-0.4397 1.08473,-0.80213 1.57417,-1.29154 0.44795,-0.44793 0.77366,-1.06309 1.22435,-1.50681 3.17182,-2.70245 1.36552,-1.05292 4.19777,-3.87464 0.58032,-0.57817 1.23201,-1.0592 1.74907,-1.72207 0.88919,-1.13993 1.58109,-2.49454 2.4487,-3.65939 0.41879,-0.56226 0.93739,-0.99821 1.39927,-1.50681 2.40065,-2.64347 1.38363,-1.66363 3.84795,-4.0899 1.10208,-1.08506 2.28765,-2.04877 3.32324,-3.22887 5.88051,-6.70104 -3.88403,2.96362 3.32324,-4.52042 1.17641,-1.2216 2.48486,-2.23989 3.67305,-3.44413 0.79622,-0.80699 1.48139,-1.77042 2.27378,-2.58309 0.95854,-0.98306 2.02839,-1.79572 2.97343,-2.79836 8.88248,-9.42384 -4.43302,4.08417 4.02287,-5.16619 0.87151,-0.9534 1.91318,-1.64918 2.79851,-2.5831 0.75122,-0.79246 1.35939,-1.77411 2.09888,-2.5831 7.09298,-7.75937 -1.44255,2.04918 4.89741,-4.73566 1.40481,-1.50339 2.41871,-3.24732 3.84795,-4.73569 0.76574,-0.7974 1.63884,-1.42421 2.44871,-2.15258 0.70609,-0.63502 1.42465,-1.25184 2.09889,-1.93731 0.66821,-0.67936 1.23392,-1.50715 1.92397,-2.15259 0.77256,-0.72259 1.64698,-1.26459 2.4487,-1.93731 1.27822,-1.07257 2.37325,-2.40906 3.67306,-3.44414 0.48434,-0.38569 2.31175,-1.70841 2.97343,-2.15258 0.2289,-0.15366 0.48746,-0.244 0.69962,-0.43051 0.20129,-0.17694 0.31891,-0.47692 0.52473,-0.64578 0.1534,-0.12586 0.36662,-0.0985 0.52472,-0.21526 0.1414,-0.10441 0.21788,-0.30874 0.34981,-0.43051 0.0881,-0.47425 0.35982,-0.11379 0.52473,-0.21526 0.0738,-0.0454 0.11659,-0.14351 0.1749,-0.21526 0.0583,-0.0718 0.13803,-0.1245 0.17491,-0.21526 0.0261,-0.0642 -0.0413,-0.16452 0,-0.21526 0.0413,-0.0508 0.13367,0.0507 0.1749,0 0.0413,-0.0508 -0.0412,-0.16452 0,-0.21526 0.0413,-0.0508 0.12277,0.0321 0.17491,0 0.72793,-0.44792 -0.18698,0.0149 0.17491,-0.4305 0.0412,-0.0507 0.13369,0.0508 0.1749,0 0.0413,-0.0507 -0.0413,-0.16453 0,-0.21527 0.0413,-0.0508 0.12276,0.0321 0.17492,0 0.0738,-0.0454 0.1166,-0.1435 0.1749,-0.21526 0.0583,-0.0718 0.13804,-0.12449 0.17491,-0.21525 0.0261,-0.0642 -0.0413,-0.16453 0,-0.21526 0.0412,-0.0507 0.1196,0.0226 0.17491,0 0.12368,-0.0507 0.24134,-0.12626 0.34981,-0.21525 0.5801,-0.71393 -0.16491,0.10146 0.34982,-0.21526 0.14749,-0.0908 0.20231,-0.33977 0.3498,-0.43052 0.046,-0.0283 0.60817,0 0.69963,0"
       id="path4138-4"
       inkscape:connector-curvature="0"
       inkscape:export-xdpi="90"
       inkscape:export-ydpi="90" />
    <path
       style="fill:none;stroke:#363636;stroke-width:10.63583755;stroke-linecap:butt;stroke-linejoin:miter;stroke-miterlimit:4;stroke-opacity:1;stroke-dasharray:none;display:inline"
       d="m 383.9982,546.67614 c 0.52494,1.55112 0.9548,3.1544 1.57481,4.65338 0.14756,0.35672 0.45578,0.57778 0.69992,0.84606 0.3979,0.43726 0.81658,0.84607 1.22486,1.26911 1.60063,1.65844 0.84462,0.80946 2.27473,2.53819 0.46662,0.56405 0.90322,1.16686 1.39985,1.69214 0.43895,0.46429 0.93322,0.84607 1.39982,1.2691 1.37693,1.24833 1.51253,1.30495 2.79968,2.74972 0.46662,0.52377 2.36223,2.91592 2.6247,3.17275 0.65381,0.6398 1.40473,1.11932 2.09975,1.69215 6.61092,5.44864 -2.41071,-1.95525 3.14963,2.74971 0.68915,0.58313 1.4268,1.08203 2.09976,1.69214 2.45973,2.23 1.5085,1.5468 3.32461,3.59579 0.45327,0.51138 0.94835,0.96693 1.39984,1.48061 1.67625,1.90708 1.90256,2.51623 3.84955,4.44186 0.48829,0.48293 1.07681,0.80088 1.57482,1.2691 0.55439,0.52124 1.01906,1.17302 1.57481,1.69214 0.72975,0.68163 1.5546,1.20725 2.27474,1.90365 1.05225,1.01757 2.32422,2.59802 3.32461,3.8073 0.52494,0.63455 0.98092,1.36522 1.57482,1.90366 0.81623,0.74001 1.81598,1.15167 2.6247,1.90365 0.71918,0.66874 1.26694,1.57126 1.92477,2.32669 0.5092,0.58474 1.02355,1.16606 1.57481,1.69213 1.11762,1.06657 2.40042,1.86702 3.4996,2.96123 1.94639,1.93761 0.62482,1.09571 2.44971,3.5958 0.41022,0.56199 0.91042,1.02048 1.39984,1.48062 0.56199,0.52838 1.16814,0.9843 1.74979,1.48061 0.40992,0.34977 0.81658,0.70506 1.22486,1.05758 0.40829,0.35253 0.84183,0.66582 1.22486,1.05759 4.37329,4.47317 -2.52375,-2.10215 2.27473,2.5382 0.57642,0.55743 1.66294,1.4578 2.27473,2.11517 0.43157,0.46372 0.81659,0.98709 1.22487,1.48062 0.23331,0.28203 0.48519,0.54325 0.69992,0.84607 0.13686,0.19301 0.21532,0.43926 0.34995,0.63456 0.31684,0.45959 0.72398,0.81886 1.04988,1.26909 0.26587,0.36731 0.95703,1.4504 1.22486,1.90366 0.12224,0.20686 0.20125,0.45479 0.34996,0.63455 0.20621,0.24928 0.4785,0.40513 0.69991,0.63454 0.18789,0.19468 0.33484,0.44306 0.52495,0.63455 0.3231,0.32549 0.75246,0.48656 1.04987,0.84608 0.1487,0.17975 0.20125,0.45479 0.34996,0.63455 0.14871,0.17974 0.36339,0.26029 0.52494,0.42303 0.1901,0.1915 0.34996,0.42303 0.52494,0.63456 0.17498,0.21151 0.34996,0.42303 0.52494,0.63454 0.17498,0.21152 0.37646,0.39525 0.52494,0.63456 0.20406,0.32888 0.29898,0.75031 0.52494,1.05759 0.24812,0.33742 0.59576,0.54613 0.8749,0.84606 1.76733,1.89899 -0.55619,-0.25911 1.74979,1.69213 0.47783,0.40432 0.93322,0.84606 1.39984,1.2691 0.2333,0.21152 0.4937,0.38528 0.69991,0.63455 0.14871,0.17976 0.2131,0.44154 0.34997,0.63456 0.0174,0.0244 1.39208,1.67925 1.39983,1.69213 0.27659,0.45972 0.42334,1.02091 0.69993,1.48062 0.19407,0.32255 0.46661,0.56404 0.69992,0.84607 0.29163,0.35252 0.58326,0.70505 0.8749,1.05758 0.2333,0.28203 0.4516,0.58344 0.69992,0.84608 0.21946,0.23214 0.4937,0.38527 0.69991,0.63455 0.008,0.01 0.68382,1.24477 0.69992,1.2691 0.20612,0.31145 0.49381,0.53463 0.69991,0.84607 0.31755,0.24729 0.32088,0.72869 0.52495,1.05758 0.16581,0.26724 0.49091,0.59343 0.69992,0.84607 0.25996,0.31425 0.43974,0.63455 0.87489,0.63455 0.24049,0 0.46662,-0.14101 0.69992,-0.21151"
       id="path4140-5"
       inkscape:connector-curvature="0" />
    <path
       style="fill:none;stroke:#363636;stroke-width:10.63583755;stroke-linecap:butt;stroke-linejoin:miter;stroke-miterlimit:4;stroke-opacity:1;stroke-dasharray:none;display:inline"
       d="m 373.06406,783.21146 c 3.14833,-3.37238 6.28735,-6.75797 9.44499,-10.11714 0.28243,-0.30046 0.58774,-0.56691 0.87454,-0.86104 0.26603,-0.27284 2.00776,-2.095 2.27379,-2.36784 0.64528,-0.66179 1.3801,-1.34936 1.92398,-2.15257 0.32107,-0.47418 0.54814,-1.03818 0.87453,-1.50682 0.85545,-1.22824 2.3792,-2.74215 3.32324,-3.65938 0.39365,-0.38247 0.81106,-0.7266 1.22435,-1.07629 0.51967,-0.4397 1.08473,-0.80213 1.57417,-1.29154 0.44794,-0.44794 0.77366,-1.06309 1.22434,-1.50681 3.17183,-2.70246 1.36552,-1.05293 4.19778,-3.87465 0.58032,-0.57816 1.232,-1.0592 1.74907,-1.72207 0.88919,-1.13992 1.58109,-2.49453 2.4487,-3.65938 0.41879,-0.56226 0.93739,-0.99821 1.39926,-1.50681 2.40065,-2.64347 1.38364,-1.66364 3.84796,-4.08991 1.10208,-1.08505 2.28764,-2.04877 3.32323,-3.22886 5.88052,-6.70105 -3.88402,2.96361 3.32324,-4.52042 1.17642,-1.2216 2.48487,-2.2399 3.67305,-3.44414 0.79623,-0.80698 1.48139,-1.77041 2.27379,-2.58309 0.95854,-0.98305 2.02839,-1.79571 2.97343,-2.79835 8.88249,-9.42384 -4.43303,4.08416 4.02287,-5.1662 0.87151,-0.95339 1.91319,-1.64917 2.79852,-2.5831 0.75122,-0.79246 1.35938,-1.77411 2.09888,-2.58309 7.09297,-7.75938 -1.44256,2.04918 4.8974,-4.73566 1.40481,-1.50339 2.41872,-3.24732 3.84796,-4.73569 0.76573,-0.7974 1.63884,-1.42422 2.4487,-2.15258 0.70609,-0.63502 1.42465,-1.25184 2.09889,-1.93731 0.66821,-0.67936 1.23392,-1.50716 1.92398,-2.15259 0.77255,-0.72259 1.64698,-1.26459 2.44869,-1.93732 1.27822,-1.07256 2.37326,-2.40906 3.67306,-3.44413 0.48433,-0.38569 2.31175,-1.70841 2.97343,-2.15258 0.22889,-0.15366 0.48746,-0.24401 0.69962,-0.43051 0.20129,-0.17695 0.31891,-0.47692 0.52472,-0.64578 0.15341,-0.12586 0.36663,-0.0985 0.52473,-0.21526 0.1414,-0.10441 0.21788,-0.30874 0.34981,-0.43051 0.0881,-0.47425 0.35982,-0.11379 0.52472,-0.21526 0.0738,-0.0454 0.1166,-0.14351 0.1749,-0.21526 0.0583,-0.0718 0.13804,-0.1245 0.17492,-0.21526 0.0261,-0.0642 -0.0413,-0.16452 0,-0.21526 0.0412,-0.0508 0.13367,0.0507 0.1749,0 0.0413,-0.0508 -0.0413,-0.16452 0,-0.21526 0.0413,-0.0508 0.12276,0.0321 0.17491,0 0.72792,-0.44793 -0.18698,0.0149 0.1749,-0.4305 0.0413,-0.0507 0.13369,0.0508 0.17491,0 0.0412,-0.0507 -0.0413,-0.16453 0,-0.21527 0.0412,-0.0508 0.12276,0.0321 0.17491,0 0.0738,-0.0454 0.11661,-0.1435 0.17491,-0.21526 0.0583,-0.0718 0.13803,-0.12449 0.1749,-0.21525 0.0261,-0.0642 -0.0412,-0.16453 0,-0.21526 0.0413,-0.0507 0.11961,0.0226 0.17492,0 0.12367,-0.0507 0.24134,-0.12626 0.34981,-0.21526 0.58009,-0.71392 -0.16491,0.10147 0.34982,-0.21526 0.14749,-0.0908 0.20231,-0.33976 0.3498,-0.43052 0.046,-0.0283 0.60817,0 0.69963,0"
       id="path4138-5"
       inkscape:connector-curvature="0"
       inkscape:export-xdpi="90"
       inkscape:export-ydpi="90" />
    <path
       style="fill:none;stroke:#363636;stroke-width:10.63583755;stroke-linecap:butt;stroke-linejoin:miter;stroke-miterlimit:4;stroke-opacity:1;stroke-dasharray:none;display:inline"
       d="m 376.31714,688.05539 c 0.52493,1.55112 0.95479,3.1544 1.57481,4.65337 0.14756,0.35673 0.45578,0.57779 0.69991,0.84607 0.39791,0.43726 0.81659,0.84606 1.22487,1.26911 1.60062,1.65844 0.84461,0.80945 2.27473,2.53819 0.46661,0.56405 0.90322,1.16686 1.39984,1.69214 0.43895,0.46428 0.93323,0.84606 1.39983,1.2691 1.37692,1.24832 1.51253,1.30494 2.79967,2.74972 0.46662,0.52377 2.36224,2.91592 2.6247,3.17275 0.65382,0.6398 1.40474,1.11932 2.09976,1.69215 6.61092,5.44864 -2.41072,-1.95526 3.14963,2.74971 0.68914,0.58313 1.42679,1.08203 2.09975,1.69213 2.45974,2.23001 1.50851,1.54681 3.32461,3.59579 0.45328,0.51138 0.94835,0.96694 1.39985,1.48062 1.67625,1.90707 1.90255,2.51623 3.84955,4.44185 0.48829,0.48293 1.07681,0.80089 1.57482,1.26911 0.55439,0.52123 1.01906,1.17301 1.57481,1.69213 0.72974,0.68163 1.5546,1.20726 2.27473,1.90366 1.05226,1.01756 2.32422,2.59802 3.32461,3.8073 0.52495,0.63455 0.98093,1.36521 1.57482,1.90365 0.81624,0.74001 1.81598,1.15167 2.6247,1.90365 0.71919,0.66874 1.26694,1.57127 1.92478,2.32669 0.50919,0.58475 1.02355,1.16606 1.57481,1.69214 1.11762,1.06657 2.40042,1.86702 3.4996,2.96123 1.94638,1.93761 0.62481,1.09571 2.44972,3.59579 0.41022,0.56199 0.91042,1.02049 1.39983,1.48063 0.56199,0.52837 1.16814,0.9843 1.74979,1.48061 0.40992,0.34976 0.81659,0.70505 1.22487,1.05758 0.40828,0.35253 0.84182,0.66582 1.22485,1.05759 4.37329,4.47317 -2.52374,-2.10215 2.27473,2.5382 0.57643,0.55743 1.66294,1.4578 2.27474,2.11517 0.43156,0.46371 0.81658,0.98708 1.22486,1.48062 0.23331,0.28203 0.4852,0.54325 0.69992,0.84607 0.13686,0.19301 0.21532,0.43926 0.34996,0.63456 0.31683,0.45959 0.72397,0.81885 1.04988,1.26909 0.26586,0.3673 0.95702,1.4504 1.22485,1.90366 0.12224,0.20686 0.20125,0.45479 0.34997,0.63455 0.2062,0.24927 0.47849,0.40513 0.69991,0.63454 0.18788,0.19467 0.33484,0.44306 0.52494,0.63455 0.32311,0.32549 0.75247,0.48656 1.04987,0.84608 0.14871,0.17975 0.20126,0.45478 0.34997,0.63455 0.1487,0.17974 0.36338,0.26028 0.52493,0.42302 0.19011,0.19151 0.34996,0.42304 0.52494,0.63456 0.17498,0.21152 0.34996,0.42304 0.52495,0.63454 0.17497,0.21153 0.37645,0.39526 0.52493,0.63456 0.20407,0.32888 0.29898,0.75032 0.52494,1.05759 0.24813,0.33742 0.59576,0.54614 0.8749,0.84607 1.76734,1.89898 -0.55619,-0.25911 1.74979,1.69213 0.47784,0.40432 0.93323,0.84606 1.39985,1.2691 0.2333,0.21152 0.4937,0.38527 0.69991,0.63455 0.1487,0.17976 0.21309,0.44153 0.34996,0.63456 0.0174,0.0244 1.39209,1.67925 1.39984,1.69213 0.27658,0.45972 0.42333,1.02091 0.69992,1.48062 0.19406,0.32255 0.46661,0.56404 0.69991,0.84607 0.29163,0.35252 0.58327,0.70505 0.8749,1.05757 0.23331,0.28204 0.45161,0.58345 0.69992,0.84609 0.21947,0.23213 0.4937,0.38527 0.69991,0.63455 0.008,0.01 0.68383,1.24477 0.69992,1.2691 0.20613,0.31145 0.49381,0.53463 0.69992,0.84606 0.31754,0.2473 0.32088,0.7287 0.52495,1.05759 0.1658,0.26724 0.49091,0.59343 0.69991,0.84607 0.25996,0.31424 0.43975,0.63455 0.8749,0.63455 0.24049,0 0.46661,-0.14102 0.69991,-0.21152"
       id="path4140-1"
       inkscape:connector-curvature="0" />
  </g>
</svg>
